<svg version="1.2" xmlns="http://www.w3.org/2000/svg" viewBox="0 0 733 195" width="733" height="195">
	<title>AOD logo_RGB</title>
	<style>
		tspan { white-space:pre } 
		.s0 { fill: #28abe2 } 
		.s1 { fill: #ffffff } 
		.t2 { font-size: 28px;fill: #29aae1;font-family: "Century Gothic" } 
		.t3 { font-size: 28px;fill: #ffffff;font-family: "Century Gothic" } 
	</style>
	<g id="Layer 1">
		<g id="&lt;Group&gt;">
			<g id="&lt;Group&gt;">
				<path id="&lt;Path&gt;" class="s0" d="m625.8 86.9c0-23.8 19.2-43 43-43 23.7 0 43 19.2 43 43 0 23.8-19.3 43-43 43-23.8 0-43-19.2-43-43z"/>
				<g id="&lt;Group&gt;">
					<path id="&lt;Compound Path&gt;" class="s0" d="m109.5 22.5c10.8 0 21.3-0.5 31.8 0.1 14.2 0.8 23.8 8.8 28.9 21.8 5.3 13.8 4.9 27.9-0.7 41.6-4.2 10.1-12 16.3-22.6 18.5-12.3 2.7-24.8 0.8-37.4 1.4 0-28 0-55.6 0-83.4zm19.1 64.4c3.1 0 6 0 9 0 7.1-0.1 12.6-3.9 15-10.7 2.9-8.4 2.7-16.9-0.6-25.2-1.9-4.7-5.2-8.3-10.3-9.1-4.3-0.8-8.7-0.7-13.1-0.9 0 15.6 0 30.6 0 45.9z"/>
					<path id="&lt;Compound Path&gt;" class="s0" d="m102.9 105.8c-7.2 0-13.8 0-20.8 0-1.2-3.9-2.4-7.9-3.7-12-8 0-16 0-24-0.1-1.5 0-1.8 0.9-2.2 2-1 3.3-2.1 6.6-3.3 10-6.7 0-13.3 0-20.5 0 10-27.9 19.8-55.5 29.7-83.2 5.2 0 10.1 0 15.3 0 9.8 27.6 19.5 55.2 29.5 83.3zm-29.5-29.1c-2.5-9.4-4.9-18.4-7.3-27.3q-0.4 0.1-0.7 0.1c-2.4 9-4.8 18-7.3 27.2 5.3 0 10.1 0 15.3 0z"/>
					<path id="&lt;Compound Path&gt;" class="s1" d="m284.1 72c0-8.8 0-17.7 0-26.7 5.9 0 11.9 0 18.1 0 0 20.3 0 40.7 0 61.4-5 0-9.9 0.1-14.7-0.1-0.9 0-1.9-1.1-2.4-1.9-4.8-7.6-9.4-15.4-14.1-23-0.3-0.6-0.7-1.2-1.5-2.3 0 9.3 0 18.1 0 27.1-6 0-12 0-18.4 0q0-13.4 0-26.8-0.3-0.1-0.6-0.1c-1.6 10.4-6.5 18.7-15.7 24-7 4.1-14.6 5.1-22.5 3.5-14.7-2.8-25.5-17.1-24.7-32.5 0.8-16.8 13-29.5 29.5-30.6 13.2-0.8 30.1 6.8 33.9 28.4 0-9 0-18 0-27.3 5.3 0 10.3-0.1 15.3 0.1 0.7 0 1.6 1 2.1 1.8 4.6 7.6 9.1 15.3 13.7 22.9 0.4 0.8 0.9 1.5 1.4 2.3q0.3-0.1 0.6-0.2zm-77.3 3.8c0.1 3.6 1 6.9 3.3 9.7 4.9 6.3 14.1 5.9 18.6-0.7 3.5-5.3 3.5-12.4 0-17.7-2.9-4.3-7.6-6.1-12.5-4.8-5.6 1.4-9.4 6.9-9.4 13.5zm211.4-31.1c-19.6 2-32 18.1-28.3 36.8 3.6 18.3 21.9 28.7 40 23.9 16.6-4.4 25.3-21.8 22.4-34.9-12 0-23.9 0-36 0 0 4.7 0 9.4 0 14.1 2.8 0 5.3 0 7.9 0q3.9 0 7.8 0 0.1 0.4 0.3 0.7c-1 1.1-1.8 2.2-2.9 3.1-5 3.8-13.5 3.3-18.1-1.1-4.6-4.7-5.3-10.4-4-16.5 0.9-4.2 3.3-7.8 7.1-9.3 6.7-2.7 12.3-2 17.3 4.5 0.5 0.6 1.2 1.3 1.8 1.3 5.9 0.1 11.7 0.1 17.5 0.1-0.9-10.8-14.9-24.4-32.8-22.7zm-101.4 60.7c0-20 0-39.7 0-60 10.3 0.4 20.5 0 30.5 1.3 9.7 1.2 16.3 7.6 19.6 16.8 2.8 7.9 2.8 15.9 0.3 23.8-3.3 10.1-10.6 15.5-20.8 17.4-2.9 0.5-5.9 0.6-8.9 0.6-6.8 0.1-13.7 0.1-20.7 0.1zm17.7-44.1c0 9.6 0 19 0 28.5 12.1 0.9 17.4-3.5 17-14.5-0.3-10.5-5-15.2-17-14zm235 44c-6.5 0-12.6 0-18.9 0-0.9-2.6-1.8-5.2-2.8-8-5.6 0-11.2-0.2-16.8 0.1-0.8 0-1.8 1.6-2.3 2.7-0.7 1.6-1 3.4-1.5 5.2-6.3 0-12.4 0-18.8 0 8-19.9 15.9-39.6 23.9-59.4 4.4 0 8.8 0 13.5 0 7.8 19.6 15.7 39.4 23.7 59.4zm-30.2-35q-0.3 0-0.6 0c-1.2 4-2.4 8-3.6 12.3 2.8 0 5.2 0 7.9 0-1.2-4.3-2.5-8.3-3.7-12.3zm-37.1-9.4c3.8 0 7.3 0 10.8 0 0-5.1 0-10 0-14.9-13.2 0-26.4 0-39.4 0 0 5.1 0 10 0 15.1 3.7 0 7.2 0 11 0 0 14.9 0 29.5 0 44.2 5.9 0 11.5 0 17.6 0 0-14.9 0-29.5 0-44.4zm103.6 44.3c0-5.1 0-10 0-15.3-5.7 0-11.3 0-17 0 0-14.9 0-29.4 0-43.9-5.8 0-11.4 0-17 0 0 19.8 0 39.4 0 59.2 11.4 0 22.7 0 34 0zm-152 0c5.8 0 11.4 0 17.1 0 0-19.8 0-39.5 0-59.3-5.7 0-11.2 0-17.1 0 0 20 0 39.7 0 59.3zm-83-0.1c5.9 0 11.7 0 17.4 0 0-19.8 0-39.4 0-59.2-5.8 0-11.3 0-17.4 0 0 19.9 0 39.6 0 59.2z"/>
					<path id="&lt;Path&gt;" class="s0" d="m708.4 79.1c0-0.1-0.1-0.2-0.1-0.3 0 0 0.1 0 0.2 0 0 0.1-0.1 0.1-0.1 0.3z"/>
				</g>
				<path id="&lt;Path&gt;" class="s1" d="m659 111.1c11-8.1 21.4-15.9 31.8-23.6-10.6-8-21-15.7-31.8-23.8 0 16 0 31.4 0 47.4z"/>
				<g id="&lt;Group&gt;">
					<path id="&lt;Path&gt;" class="s1" d="m659 111.1c11-8.1 21.4-15.9 31.8-23.6-10.6-8-21-15.7-31.8-23.8 0 16 0 31.4 0 47.4z"/>
				</g>
				<path id="&lt;Path&gt;" class="s0" d="m593.8 175.4c-7.2 0-12.9-5.8-12.9-12.9 0-7.1 5.7-12.9 12.9-12.9 7.1 0 12.9 5.8 12.9 12.9 0 7.1-5.8 12.9-12.9 12.9z"/>
				<path id="&lt;Path&gt;" class="s1" d="m590.9 169.8c3.2-2.5 6.4-4.8 9.5-7.1-3.2-2.4-6.3-4.7-9.5-7.1 0 4.8 0 9.4 0 14.2z"/>
				<g id="&lt;Group&gt;">
					<path id="&lt;Path&gt;" class="s1" d="m590.9 169.8c3.2-2.5 6.4-4.8 9.5-7.1-3.2-2.4-6.3-4.7-9.5-7.1 0 4.8 0 9.4 0 14.2z"/>
				</g>
				<path id="&lt;Path&gt;" class="s0" d="m541.2 162.5c0-6.3 5.1-11.4 11.4-11.4 6.3 0 11.4 5.1 11.4 11.4 0 6.3-5.1 11.4-11.4 11.4-6.3 0-11.4-5.1-11.4-11.4z"/>
				<path id="&lt;Path&gt;" class="s1" d="m550 168.9c2.9-2.1 5.7-4.2 8.4-6.2-2.8-2.1-5.5-4.2-8.4-6.3 0 4.2 0 8.3 0 12.5z"/>
				<g id="&lt;Group&gt;">
					<path id="&lt;Path&gt;" class="s1" d="m550 168.9c2.9-2.1 5.7-4.2 8.4-6.2-2.8-2.1-5.5-4.2-8.4-6.3 0 4.2 0 8.3 0 12.5z"/>
				</g>
				<path id="&lt;Path&gt;" class="s0" d="m513.9 172.3c-5.5 0-9.9-4.4-9.9-9.8 0-5.4 4.4-9.8 9.9-9.8 5.4 0 9.8 4.4 9.8 9.8 0 5.4-4.4 9.8-9.8 9.8z"/>
				<path id="&lt;Path&gt;" class="s1" d="m511.6 168c2.5-1.8 4.9-3.6 7.3-5.4-2.4-1.8-4.8-3.6-7.3-5.4 0 3.7 0 7.2 0 10.8z"/>
				<g id="&lt;Group&gt;">
					<path id="&lt;Path&gt;" class="s1" d="m511.6 168c2.5-1.8 4.9-3.6 7.3-5.4-2.4-1.8-4.8-3.6-7.3-5.4 0 3.7 0 7.2 0 10.8z"/>
				</g>
				<path id="&lt;Path&gt;" class="s0" d="m469.9 162.5c0-4.6 3.7-8.3 8.3-8.3 4.6 0 8.3 3.7 8.3 8.3 0 4.6-3.7 8.3-8.3 8.3-4.6 0-8.3-3.7-8.3-8.3z"/>
				<path id="&lt;Path&gt;" class="s1" d="m476.3 167.2c2.2-1.6 4.2-3.1 6.2-4.6-2.1-1.5-4.1-3-6.2-4.6 0 3.1 0 6.1 0 9.2z"/>
				<g id="&lt;Group&gt;">
					<path id="&lt;Path&gt;" class="s1" d="m476.3 167.2c2.2-1.6 4.2-3.1 6.2-4.6-2.1-1.5-4.1-3-6.2-4.6 0 3.1 0 6.1 0 9.2z"/>
				</g>
				<path id="&lt;Path&gt;" class="s0" d="m439.7 162.5c0-3.7 3-6.8 6.8-6.8 3.7 0 6.7 3.1 6.7 6.8 0 3.7-3 6.8-6.7 6.8-3.8 0-6.8-3.1-6.8-6.8z"/>
				<path id="&lt;Path&gt;" class="s1" d="m444.9 166.3c1.8-1.3 3.4-2.5 5-3.7-1.6-1.3-3.3-2.5-5-3.7 0 2.5 0 4.9 0 7.4z"/>
				<g id="&lt;Group&gt;">
					<path id="&lt;Path&gt;" class="s1" d="m444.9 166.3c1.8-1.3 3.4-2.5 5-3.7-1.6-1.3-3.3-2.5-5-3.7 0 2.5 0 4.9 0 7.4z"/>
				</g>
				<text id="Engage your customers. 
" style="transform: matrix(1,0,0,1,25.19,135.688)" >
					<tspan x="0" y="0" class="t2">Engage your customers. 
</tspan>
				</text>
				<text id="Evolve your brand " style="transform: matrix(1,0,0,1,364.504,135.688)" >
					<tspan x="0" y="0" class="t3">Evolve your brand 
</tspan>
				</text>
			</g>
			<g id="&lt;Group&gt;">
				<g id="&lt;Group&gt;">
					<path id="&lt;Compound Path&gt;" class="s1" d="m604.2 35.1v1.4h-3.1v7.4h-1.6v-7.4h-3.1v-1.4zm12.3 0v8.8h-1.5v-7.3l-3.3 7.3h-1.1l-3.2-7.3v7.3h-1.5v-8.8h2.5l2.8 6.1 2.9-6.1z"/>
				</g>
			</g>
		</g>
	</g>
</svg>