<svg version="1.2" xmlns="http://www.w3.org/2000/svg" viewBox="0 0 1357 761" width="1357" height="761">
	<title>AOG-logo-svg</title>
	<defs>
		<clipPath clipPathUnits="userSpaceOnUse" id="cp1">
			<path d="m648.66 582.79v131.64h-27.89l-40.32-71.84v71.84h-31.9v-131.64h28.85l39.36 70.88v-70.88zm176.49 0.01h54.46c30.95 0 45.09 21.96 45.09 43.94 0 18.72-10.13 36.87-31.53 42.22l32.1 45.47h-37.07l-28.28-43.94h-2.86v43.94h-31.91zm31.91 60.18h21.01c10.52 0 14.34-8.41 14.34-16.25 0-7.82-3.82-16.04-14.34-16.04h-21.01zm322.17-60.19v83.68c0 30.39-24.66 49.69-51.98 49.69-27.32 0-51.97-19.3-51.97-49.69v-83.68h32.1v83.68c0 11.85 9.94 19.69 19.87 19.69 9.93 0 19.87-7.84 19.87-19.69v-83.68zm8.79 0.01h54.45c30.96 0 45.1 21.97 45.1 43.94 0 22.17-14.14 43.76-45.1 43.76h-22.55v43.94h-31.9zm31.91 60.17h21.02c10.5 0 14.33-8.41 14.33-16.24 0-7.83-3.82-16.05-14.33-16.05h-21.02zm-747.44-61.89c37.44 0 67.26 30.18 67.26 67.63 0 37.07-29.82 67.45-67.26 67.45-37.07 0-67.07-30.38-67.07-67.45 0-37.45 30-67.64 67.07-67.63zm0 102.98c19.48 0 35.15-15.67 35.15-35.35 0-19.68-15.67-35.54-35.15-35.54-19.49 0-34.78 15.86-34.78 35.54 0 19.67 15.29 35.35 34.78 35.35zm278.91-102.98c21.4 0 39.93 9.17 51.4 23.31l-23.7 20.05c-6.87-8.41-16.63-13.75-27.7-13.75-20.07 0-35.55 17-35.55 38.02 0 20.64 15.49 38.41 35.55 38.41 15.47 0 27.32-5.35 30.18-17.58h-36.87v-25.6h71.65c0 50.44-27.13 72.22-64.96 72.22-38.03 0-67.84-30.38-67.84-67.45 0-37.45 29.81-67.64 67.84-67.63zm247.63 0c37.45 0 67.26 30.18 67.26 67.63 0 37.07-29.81 67.45-67.26 67.45-37.06 0-67.06-30.38-67.06-67.45 0-37.45 30-67.64 67.06-67.63zm0 102.98c19.49 0 35.16-15.67 35.16-35.35 0-19.68-15.67-35.54-35.16-35.54-19.48 0-34.77 15.86-34.77 35.54 0 19.67 15.29 35.35 34.77 35.35z"/>
		</clipPath>
	</defs>
	<style>
		.s0 { fill: #fefefe } 
		.s1 { fill: #ffffff } 
		.s2 { fill: #29a8df } 
	</style>
	<g id="Layer 1">
		<path id="&lt;Path&gt;" class="s0" d="m1112.8 314.7z"/>
		<path id="&lt;Path&gt;" class="s0" d="m1132.1 310.4z"/>
		<path id="&lt;Path&gt;" class="s0" d="m1112.8 314.7z"/>
		<path id="&lt;Path&gt;" class="s0" d="m1132.1 310.4z"/>
		<path id="&lt;Path&gt;" class="s0" d="m1112.8 314.7z"/>
		<path id="&lt;Path&gt;" class="s0" d="m1132.1 310.4z"/>
		<path id="&lt;Compound Path&gt;" class="s1" d="m452.7 220.2l-230.4-157.7c-19.8-13.6-45.4-15-66.6-3.8-21.3 11.2-34.5 33.1-34.5 57.1v315.5c0 24 13.2 45.9 34.5 57.2 9.5 5 19.8 7.5 30.1 7.5 12.8 0 25.5-3.9 36.5-11.4l230.4-157.7c17.6-12.1 28.1-32 28.1-53.3 0-21.4-10.5-41.3-28.1-53.4zm-28.6 64.8l-230.5 157.8c-6.2 4.2-12.1 1.9-14.3 0.8-2.2-1.2-7.4-4.8-7.4-12.3v-315.5c0-7.5 5.2-11.1 7.4-12.2 1.3-0.7 3.7-1.7 6.6-1.7 2.3 0 5 0.6 7.7 2.5l230.4 157.7c5.3 3.6 6.1 8.7 6.1 11.5 0 2.7-0.8 7.8-6 11.4z"/>
		<g id="&lt;Group&gt;">
			<path id="&lt;Compound Path&gt;" class="s1" d="m1211.3 328.6l-30.9-30.9c-13.5-13.5-31.5-20.9-50.6-20.9-19.1 0-37 7.4-50.6 20.9l-8.8 8.9c-44.3-18.8-79.3-53.8-98.1-98.1l8.8-8.9c27.9-27.9 27.9-73.3 0-101.2l-30.9-30.9c-13.5-13.5-31.4-20.9-50.6-20.9-19.1 0-37 7.4-50.5 20.9l-40.7 40.7c-25.4 25.4-32.5 63.1-18.1 96.1l5.8 13.1c52.1 119 146.4 213.3 265.4 265.4l13.1 5.8c11.3 4.9 23.2 7.4 35 7.4 22.4 0 44.4-8.8 61.1-25.5l40.7-40.7c27.8-27.9 27.8-73.3-0.1-101.2zm-32.3 68.9l-40.7 40.6c-12 12-29.8 15.4-45.4 8.6l-13.1-5.8c-108.4-47.5-194.3-133.4-241.9-241.9l-5.7-13.1c-6.8-15.5-3.5-33.4 8.5-45.4l40.7-40.6c4.9-4.9 11.3-7.6 18.2-7.6 6.9 0 13.4 2.7 18.3 7.6l30.9 30.9c10.1 10.1 10.1 26.4 0 36.5l-16.5 16.5c-8 7.9-10.6 19.9-6.8 30.4 23.3 65.1 74.1 115.8 139.1 139.2 10.6 3.8 22.5 1.1 30.4-6.8l16.6-16.5c4.8-4.9 11.3-7.6 18.2-7.6 6.9 0 13.4 2.7 18.3 7.6l30.9 30.9c10 10 10 26.4 0 36.5z"/>
		</g>
		<g id="&lt;Group&gt;">
			<path id="&lt;Compound Path&gt;" class="s2" d="m644.6 45.3c-52.1 0-94.4 42.3-94.4 94.4 0 52.1 42.3 94.4 94.4 94.4 52.1 0 94.4-42.3 94.4-94.4 0-52.1-42.3-94.4-94.4-94.4zm0 143.5c-27 0-48.8-21.8-48.8-48.8 0-27 21.8-48.8 48.8-48.8 27 0 48.8 21.8 48.8 48.8 0 27-21.8 48.8-48.8 48.8z"/>
			<path id="&lt;Path&gt;" class="s2" d="m496.3 365.9v130.1h46.1v-122.9c0-32.7 26.4-59.3 59.3-59.3h83.9c32.7 0 59.4 26.3 59.4 59.3v122.9h46.1v-130.1c0-54.2-43.7-98.3-98.3-98.3h-98.2c-54.6 0-98.3 44.1-98.3 98.3z"/>
		</g>
		<path id="&lt;Compound Path&gt;" class="s1" d="m183.4 714l-7.8-23.1h-55.6l-8.5 23.1h-43.9l64.3-160.2h32.2l63.7 160.2zm-35.1-110.4h-0.2-0.5l-16.4 54.8h33.5z"/>
		<path id="&lt;Compound Path&gt;" class="s1" d="m291.6 714h-56v-160.2h53c29 0 52.6 4.8 70.8 29.9 10.4 14.5 14.7 32 14.7 49.8 0 52.6-30.1 80.5-82.5 80.5zm2.6-124.2h-17.7v88.3h17.5c27.9 0 39.2-18 39.2-44 0-25.5-11.7-44.3-39-44.3z"/>
		<g id="Clip-Path: &lt;Clip Group&gt;" clip-path="url(#cp1)">
			<g id="&lt;Clip Group&gt;">
				<path id="&lt;Path&gt;" class="s1" d="m405.4 581.1h882.2v135.1h-882.2z"/>
			</g>
		</g>
	</g>
</svg>