<svg version="1.2" xmlns="http://www.w3.org/2000/svg" viewBox="0 0 609 195" width="609" height="195">
	<title>AOH logo_RGB</title>
	<style>
		tspan { white-space:pre } 
		.s0 { fill: #ffffff } 
		.t1 { font-size: 21px;fill: #ffffff;font-weight: bold;font-family: "Myriad Pro" } 
	</style>
	<g id="Layer 1">
		<g id="&lt;Group&gt;">
			<g id="&lt;Group&gt;">
				<path id="&lt;Compound Path&gt;" class="s0" d="m194.3 76.5c-15 0-24.2 10-27.6 18.5-1.5 3.7-2.2 7.9-2.2 12.4 0 14.2 11.4 29.6 29.8 29.6 16.8 0 29.9-13.3 29.9-30.3 0-16.9-13.1-30.2-29.9-30.2zm0.2 43.7c-7.7 0-11.9-7-11.9-13.6 0-6.5 4.1-13.3 11.8-13.3 8.1 0 11.8 7.9 11.8 13.5 0 5.6-3.6 13.4-11.7 13.4z"/>
				<path id="&lt;Path&gt;" class="s0" d="m256.5 105l-16.4-27.5h-15.2v58.5h17.6l-0.3-26.6 16.2 26.6h15.2v-58.5h-17.5z"/>
				<path id="&lt;Path&gt;" class="s0" d="m323.5 97.7h-12.2v-20.2h-18.1v58.5h18.1v-21.5h12.2v21.5h18.1v-58.5h-18.1z"/>
				<path id="&lt;Compound Path&gt;" class="s0" d="m372.2 76.5c-15.1 0-24.3 10-27.7 18.5-1.5 3.7-2.2 7.9-2.2 12.4 0 14.2 11.4 29.6 29.8 29.6 16.8 0 30-13.3 30-30.3 0-16.9-13.2-30.2-29.9-30.2zm0.2 43.7c-7.8 0-12-7-12-13.6 0-6.5 4.1-13.3 11.8-13.3 8.1 0 11.8 7.9 11.8 13.5 0 5.6-3.6 13.4-11.6 13.4z"/>
				<path id="&lt;Path&gt;" class="s0" d="m421.2 77.5h-18.1v58.5h33.5v-16.8h-15.4z"/>
				<path id="&lt;Compound Path&gt;" class="s0" d="m483.6 88.6c-7.5-11.1-18.9-11.1-25-11.1h-19.7v58.5h20.6c18.6 0 29.3-10.7 29.3-29.4 0-7.2-1.8-13.1-5.2-18zm-23.3 30.6h-3.3v-24.9h3.4c5 0 7 2.1 8.1 3.8 2 3.2 2.2 7.1 2.2 8.7 0 12.4-7.8 12.4-10.4 12.4z"/>
			</g>
			<path id="&lt;Compound Path&gt;" class="s0" d="m36.1 123.6l-3.7 11.5h-19.4l28.3-79.3h14.3l28 79.3h-19.5l-3.5-11.5zm5-16h14.8l-7.3-27.1h-0.1-0.1z"/>
			<path id="&lt;Compound Path&gt;" class="s0" d="m90 55.8h23.3c8 0 22.1 0 31.3 14.8 4.8 7.5 6.5 16 6.5 24.6 0 21.7-9.6 39.9-36.4 39.9h-24.7zm18 61.5h7.7c13.5 0 17.3-10.5 17.3-21.7 0-4.5-0.8-10.2-3.4-14.7-2.1-3.5-5.7-7.3-13.8-7.3h-7.8z"/>
			<path id="&lt;Path&gt;" class="s0" d="m301.4 170.9c-3 1.1-4.6 4.5-3.6 7.6 1.1 3 4.5 4.6 7.6 3.5 3-1.1 4.6-4.4 3.5-7.5-1.1-3-4.4-4.6-7.5-3.6z"/>
			<path id="&lt;Path&gt;" class="s0" d="m332.6 169.8c-3.7 1.3-5.6 5.4-4.3 9 1.3 3.7 5.4 5.6 9 4.3 3.7-1.3 5.6-5.3 4.3-9-1.3-3.7-5.3-5.6-9-4.3z"/>
			<path id="&lt;Path&gt;" class="s0" d="m366.3 168.5c-4.4 1.6-6.7 6.4-5.1 10.8 1.6 4.4 6.4 6.7 10.8 5.2 4.4-1.6 6.7-6.4 5.1-10.9-1.5-4.4-6.4-6.7-10.8-5.1z"/>
			<path id="&lt;Path&gt;" class="s0" d="m403.4 166.9c-5.3 1.9-8 7.7-6.1 13 1.8 5.3 7.6 8 12.9 6.1 5.3-1.8 8.1-7.6 6.2-12.9-1.9-5.3-7.7-8.1-13-6.2z"/>
			<path id="&lt;Path&gt;" class="s0" d="m443.4 165.3c-6.3 2.3-9.6 9.2-7.4 15.6 2.3 6.3 9.3 9.6 15.6 7.4 6.4-2.3 9.7-9.2 7.4-15.6-2.2-6.3-9.2-9.6-15.6-7.4z"/>
			<path id="&lt;Path&gt;" class="s0" d="m528.1 72.6l-11.2-15.4 2.8-38c0 0-0.1-2.9 2.9-3.2 3-0.3 10.4-0.9 10.4-0.9l6.3 0.8c0 0 9.5 2.6 15.5 9.3 0 0 2.1 28.2-15 80.7-17.2 52.5-37.6 74.1-49.5 78.4 0 0-3.2 1.2-5.8-0.4 0 0-7.9-4.9-7.1-16.8 0 0 23.2-10.3 33.9-39.6 10.7-29.2 16.8-54.9 16.8-54.9z"/>
			<path id="&lt;Compound Path&gt;" class="s0" d="m24.9 158.8l-1.9-4.8h-5.8l-1.8 4.8h-2.6l6.2-16.4h2.2l6.2 16.4zm-2.6-7l-2.1-6.3h-0.1l-2.1 6.3z"/>
			<path id="&lt;Compound Path&gt;" class="s0" d="m39.2 158.8v-1.8c-1 1.4-2.5 2.1-4.3 2.1-4.1 0-6.4-3.2-6.4-6.4 0-3 2-6.5 6.4-6.5 1.7 0 3.2 0.7 4.1 1.8h0.1v-5.6h2.3v16.4zm-4.3-10.5c-2.8 0-4.2 2.5-4.2 4.4 0 2.2 1.8 4.3 4.2 4.3 2.4 0 4.3-2 4.3-4.3 0-2.6-1.9-4.4-4.3-4.4z"/>
			<path id="&lt;Path&gt;" class="s0" d="m49.6 158.8h-1.6l-4.9-12.3h2.5l3.2 8.8 3.2-8.8h2.4z"/>
			<path id="&lt;Compound Path&gt;" class="s0" d="m57.4 153.7c0.6 2.3 2.5 3.3 4.1 3.3 1.7 0 2.9-1 3.4-2.1h2.3c-1.1 3.2-3.9 4.2-5.8 4.2-3.5 0-6.3-3-6.3-6.5 0-3.6 2.9-6.4 6.3-6.4 3.3 0 6.2 2.7 6.2 6.3 0 0.4 0 1 0 1.2zm7.9-1.8c-0.1-1.8-1.8-3.6-4-3.6-2.2 0-3.8 1.8-3.9 3.6z"/>
			<path id="&lt;Path&gt;" class="s0" d="m69.9 158.8v-12.3h2.2v1.1c1-1.3 2.6-1.4 3.1-1.4v2.4c-0.3 0-1.1 0.1-1.6 0.4-0.7 0.4-1.4 1.3-1.4 3.1v6.7z"/>
			<path id="&lt;Path&gt;" class="s0" d="m80.5 158.8h-2.3v-10.2h-1.7v-2.1h1.7v-4.1h2.3v4.1h2v2.1h-2z"/>
			<path id="&lt;Compound Path&gt;" class="s0" d="m86.3 145.1h-2.3v-2.7h2.3zm0 13.7h-2.3v-12.3h2.3z"/>
			<path id="&lt;Path&gt;" class="s0" d="m94.1 149.8c-0.1-1-0.7-1.5-1.6-1.5-0.8 0-1.4 0.5-1.4 1.3 0 1 0.9 1.3 1.9 1.6 0.9 0.3 3.7 1.1 3.7 4 0 2.1-1.5 3.9-4.1 3.9-1.6 0-4.4-1-4.4-4.3h2.3c0.1 1.3 0.8 2.2 2.1 2.2 1 0 1.8-0.6 1.8-1.7 0-1.1-1-1.4-2.2-1.9-1.3-0.5-3.4-1-3.4-3.7 0-1.8 1.5-3.5 3.8-3.5 1.4 0 3.7 0.9 3.8 3.6z"/>
			<path id="&lt;Compound Path&gt;" class="s0" d="m100.3 153.7c0.6 2.3 2.5 3.3 4 3.3 1.7 0 3-1 3.5-2.1h2.3c-1.1 3.2-3.9 4.2-5.8 4.2-3.5 0-6.3-3-6.3-6.5 0-3.6 2.9-6.4 6.3-6.4 3.3 0 6.2 2.7 6.2 6.3 0 0.4 0 1 0 1.2zm7.9-1.8c-0.1-1.8-1.8-3.6-4-3.6-2.2 0-3.8 1.8-3.9 3.6z"/>
			<path id="&lt;Path&gt;" class="s0" d="m123.2 162.9h-2.4l1.8-4.4-4.9-12h2.5l3.6 9.5 3.7-9.5h2.4z"/>
			<path id="&lt;Compound Path&gt;" class="s0" d="m136.9 159.1c-4.1 0-6.6-3.4-6.6-6.5 0-3.4 2.8-6.4 6.6-6.4 3.8 0 6.7 2.9 6.7 6.4 0 3-2.5 6.5-6.7 6.5zm0-10.8c-2.5 0-4.3 2.2-4.3 4.3 0 2.2 1.8 4.4 4.3 4.4 2.5 0 4.4-2.1 4.4-4.4 0-2.1-1.8-4.3-4.4-4.3z"/>
			<path id="&lt;Path&gt;" class="s0" d="m148.2 146.5v6.7c0 3 1.3 3.8 3 3.8 1.9 0 3.2-1.2 3.2-3.9v-6.6h2.3v12.3h-2.1v-1.3c-0.6 1-2.1 1.6-3.6 1.6-1.4 0-2.6-0.4-3.5-1.2-1-0.9-1.6-2.3-1.6-4.7v-6.7z"/>
			<path id="&lt;Path&gt;" class="s0" d="m159.7 158.8v-12.3h2.1v1.1h0.1c0.9-1.3 2.5-1.4 3.1-1.4v2.4c-0.4 0-1.1 0.1-1.7 0.4-0.7 0.4-1.3 1.3-1.3 3.1v6.7z"/>
			<path id="&lt;Compound Path&gt;" class="s0" d="m172.9 158.8v-16.4h2.3v5.8c1-1.4 2.6-2 4.2-2 3.3 0 6.4 2.7 6.4 6.5 0 3.5-2.8 6.4-6.3 6.4-1.2 0-3-0.4-4.3-2.1v1.8zm6.4-1.8c2.2 0 4.1-1.9 4.1-4.3 0-2.3-1.7-4.4-4.1-4.4-2.6 0-4.2 2.2-4.2 4.3 0 2.8 2.1 4.4 4.2 4.4z"/>
			<path id="&lt;Path&gt;" class="s0" d="m190.1 146.5v6.7c0 3 1.4 3.8 3.1 3.8 1.9 0 3.2-1.2 3.2-3.9v-6.6h2.3v12.3h-2.1v-1.3c-0.7 1-2.1 1.6-3.6 1.6-1.4 0-2.7-0.4-3.5-1.2-1.1-0.9-1.7-2.3-1.7-4.7v-6.7z"/>
			<path id="&lt;Path&gt;" class="s0" d="m206.5 149.8c-0.2-1-0.8-1.5-1.6-1.5-0.8 0-1.4 0.5-1.4 1.3 0 1 0.9 1.3 1.9 1.6 0.9 0.3 3.7 1.1 3.7 4 0 2.1-1.5 3.9-4.1 3.9-1.6 0-4.4-1-4.4-4.3h2.3c0.1 1.3 0.8 2.2 2.1 2.2 1 0 1.8-0.6 1.8-1.7 0-1.1-1-1.4-2.2-1.9-1.3-0.5-3.4-1-3.4-3.7 0-1.8 1.5-3.5 3.8-3.5 1.4 0 3.7 0.9 3.8 3.6z"/>
			<path id="&lt;Compound Path&gt;" class="s0" d="m213.3 145.1h-2.3v-2.7h2.3zm0 13.7h-2.3v-12.3h2.3z"/>
			<path id="&lt;Path&gt;" class="s0" d="m224.8 158.8v-6.7c0-0.9 0-3.8-3-3.8-1.9 0-3.2 1.4-3.2 3.8v6.7h-2.3v-12.3h2.1v1.3h0.1c1.2-1.6 3-1.6 3.5-1.6 1.9 0 3.5 0.8 4.4 2.2 0.5 0.8 0.7 1.8 0.7 3.1v7.3z"/>
			<path id="&lt;Compound Path&gt;" class="s0" d="m231.8 153.7c0.5 2.3 2.4 3.3 4 3.3 1.7 0 2.9-1 3.5-2.1h2.3c-1.2 3.2-4 4.2-5.9 4.2-3.5 0-6.2-3-6.2-6.5 0-3.6 2.8-6.4 6.2-6.4 3.4 0 6.2 2.7 6.3 6.3 0 0.4-0.1 1-0.1 1.2zm7.9-1.8c-0.1-1.8-1.7-3.6-3.9-3.6-2.3 0-3.9 1.8-4 3.6z"/>
			<path id="&lt;Path&gt;" class="s0" d="m249.1 149.8c-0.1-1-0.7-1.5-1.6-1.5-0.8 0-1.4 0.5-1.4 1.3 0 1 0.9 1.3 1.9 1.6 0.9 0.3 3.7 1.1 3.7 4 0 2.1-1.5 3.9-4.1 3.9-1.6 0-4.4-1-4.4-4.3h2.3c0.1 1.3 0.8 2.2 2.1 2.2 1 0 1.8-0.6 1.8-1.7 0-1.1-1-1.4-2.2-1.9-1.3-0.5-3.4-1-3.4-3.7 0-1.8 1.5-3.5 3.8-3.5 1.4 0 3.7 0.9 3.8 3.6z"/>
			<path id="&lt;Path&gt;" class="s0" d="m258.5 149.8c-0.2-1-0.8-1.5-1.6-1.5-0.9 0-1.5 0.5-1.5 1.3 0 1 0.9 1.3 1.9 1.6 1 0.3 3.7 1.1 3.7 4 0 2.1-1.5 3.9-4.1 3.9-1.5 0-4.3-1-4.3-4.3h2.3c0.1 1.3 0.8 2.2 2.1 2.2 1 0 1.7-0.6 1.7-1.7 0-1.1-0.9-1.4-2.1-1.9-1.3-0.5-3.4-1-3.4-3.7 0-1.8 1.5-3.5 3.8-3.5 1.4 0 3.7 0.9 3.8 3.6z"/>
			<path id="&lt;Path&gt;" class="s0" d="m263.9 156.1h2.3v2.7h-2.3z"/>
			<path id="&lt;Path&gt;" class="s0" d="m274.3 142.4h2.4v16.4h-2.4z"/>
			<path id="&lt;Path&gt;" class="s0" d="m288.4 158.8v-6.7c0-0.9 0-3.8-3.1-3.8-1.9 0-3.2 1.4-3.2 3.8v6.7h-2.3v-12.3h2.1v1.3h0.1c1.2-1.6 3.1-1.6 3.6-1.6 1.9 0 3.4 0.8 4.3 2.2 0.5 0.8 0.8 1.8 0.8 3.1v7.3z"/>
			<path id="&lt;Path&gt;" class="s0" d="m302.7 150.6c-0.3-0.8-1.2-2.3-3.4-2.3-3 0-4 2.5-4 4.3 0 2.2 1.3 4.4 3.9 4.4 1.8 0 2.9-1 3.5-2.3h2.6c-0.9 2.8-3.3 4.4-6.1 4.4-4 0-6.2-3.3-6.2-6.5 0-3.3 2.4-6.4 6.3-6.4 3.4 0 5.5 2.6 6 4.4z"/>
			<path id="&lt;Path&gt;" class="s0" d="m307.5 158.8v-12.3h2.1v1.1h0.1c0.9-1.3 2.5-1.4 3.1-1.4v2.4c-0.4 0-1.1 0.1-1.7 0.4-0.7 0.4-1.3 1.3-1.3 3.1v6.7z"/>
			<path id="&lt;Compound Path&gt;" class="s0" d="m316.1 153.7c0.6 2.3 2.5 3.3 4.1 3.3 1.7 0 2.9-1 3.4-2.1h2.3c-1.1 3.2-3.9 4.2-5.8 4.2-3.5 0-6.3-3-6.3-6.5 0-3.6 2.9-6.4 6.3-6.4 3.3 0 6.2 2.7 6.2 6.3 0 0.4 0 1 0 1.2zm7.9-1.8c-0.1-1.8-1.8-3.6-4-3.6-2.2 0-3.8 1.8-3.9 3.6z"/>
			<path id="&lt;Compound Path&gt;" class="s0" d="m338.7 158.8v-1.9c-0.9 1.5-2.5 2.2-4.2 2.2-4.1 0-6.5-3.2-6.5-6.4 0-3 2.1-6.5 6.5-6.5 1.7 0 3.3 0.7 4.2 2.1v-1.8h2.3v12.3zm-4.2-10.5c-2.8 0-4.2 2.5-4.2 4.4 0 2.2 1.7 4.3 4.2 4.3 2.4 0 4.2-2 4.2-4.3 0-2.6-1.8-4.4-4.2-4.4z"/>
			<path id="&lt;Path&gt;" class="s0" d="m348.8 149.8c-0.2-1-0.8-1.5-1.6-1.5-0.8 0-1.4 0.5-1.4 1.3 0 1 0.9 1.3 1.9 1.6 0.9 0.3 3.7 1.1 3.7 4 0 2.1-1.5 3.9-4.2 3.9-1.5 0-4.3-1-4.3-4.3h2.3c0.1 1.3 0.8 2.2 2.1 2.2 1 0 1.8-0.6 1.8-1.7 0-1.1-1-1.4-2.2-1.9-1.3-0.5-3.4-1-3.4-3.7 0-1.8 1.5-3.5 3.8-3.5 1.4 0 3.7 0.9 3.8 3.6z"/>
			<path id="&lt;Compound Path&gt;" class="s0" d="m355 153.7c0.6 2.3 2.5 3.3 4 3.3 1.7 0 3-1 3.5-2.1h2.3c-1.2 3.2-4 4.2-5.9 4.2-3.4 0-6.2-3-6.2-6.5 0-3.6 2.8-6.4 6.3-6.4 3.3 0 6.2 2.7 6.2 6.3 0 0.4 0 1 0 1.2zm7.9-1.8c-0.1-1.8-1.8-3.6-4-3.6-2.2 0-3.8 1.8-3.9 3.6z"/>
			<path id="&lt;Path&gt;" class="s0" d="m377.9 162.9h-2.4l1.8-4.4-4.9-12h2.5l3.6 9.5 3.6-9.5h2.5z"/>
			<path id="&lt;Compound Path&gt;" class="s0" d="m391.6 159.1c-4.1 0-6.6-3.4-6.6-6.5 0-3.4 2.8-6.4 6.6-6.4 3.7 0 6.6 2.9 6.6 6.4 0 3-2.4 6.5-6.6 6.5zm0-10.8c-2.6 0-4.3 2.2-4.3 4.3 0 2.2 1.8 4.4 4.3 4.4 2.5 0 4.3-2.1 4.3-4.4 0-2.1-1.7-4.3-4.3-4.3z"/>
			<path id="&lt;Path&gt;" class="s0" d="m402.9 146.5v6.7c0 3 1.3 3.8 3 3.8 1.9 0 3.2-1.2 3.2-3.9v-6.6h2.3v12.3h-2.1v-1.3c-0.7 1-2.1 1.6-3.6 1.6-1.4 0-2.6-0.4-3.5-1.2-1-0.9-1.6-2.3-1.6-4.7v-6.7z"/>
			<path id="&lt;Path&gt;" class="s0" d="m414.4 158.8v-12.3h2.1v1.1h0.1c0.9-1.3 2.5-1.4 3.1-1.4v2.4c-0.4 0-1.1 0.1-1.7 0.4-0.7 0.4-1.3 1.3-1.3 3.1v6.7z"/>
			<path id="&lt;Path&gt;" class="s0" d="m428.9 153.9c0 0.6 0.2 3 2.6 3 1.5 0 2.6-1 2.6-2.8 0-1.8-1.5-2.2-2.6-2.6-2.2-0.9-2.7-1.1-3.5-1.9-0.7-0.7-1.1-1.9-1.1-3 0-1.9 1.5-4.5 4.6-4.5 2.7 0 4.7 1.8 4.7 4.6h-2.4c0-1.8-1.3-2.4-2.3-2.4-1.4 0-2.2 1.3-2.2 2.2 0 1.6 1.5 2 2.2 2.3 2.1 0.8 5 1.4 5 5.3 0 2.9-2 5-5 5-2.2 0-5-1.5-5-5.2z"/>
			<path id="&lt;Compound Path&gt;" class="s0" d="m448.6 158.8v-1.9c-0.9 1.5-2.5 2.2-4.2 2.2-4.1 0-6.5-3.2-6.5-6.4 0-3 2.2-6.5 6.5-6.5 1.7 0 3.3 0.7 4.2 2.1v-1.8h2.3v12.3zm-4.2-10.5c-2.8 0-4.2 2.5-4.2 4.4 0 2.2 1.8 4.3 4.2 4.3 2.4 0 4.3-2 4.3-4.3 0-2.6-1.9-4.4-4.3-4.4z"/>
			<path id="&lt;Path&gt;" class="s0" d="m456.2 158.8h-2.3v-16.4h2.3z"/>
			<path id="&lt;Compound Path&gt;" class="s0" d="m460.8 153.7c0.6 2.3 2.5 3.3 4.1 3.3 1.7 0 2.9-1 3.5-2.1h2.3c-1.2 3.2-4 4.2-5.9 4.2-3.5 0-6.3-3-6.3-6.5 0-3.6 2.9-6.4 6.3-6.4 3.3 0 6.2 2.7 6.3 6.3 0 0.4-0.1 1-0.1 1.2zm7.9-1.8c-0.1-1.8-1.7-3.6-4-3.6-2.2 0-3.8 1.8-3.9 3.6z"/>
			<path id="&lt;Path&gt;" class="s0" d="m478.2 149.8c-0.2-1-0.8-1.5-1.6-1.5-0.8 0-1.4 0.5-1.4 1.3 0 1 0.8 1.3 1.9 1.6 0.9 0.3 3.7 1.1 3.7 4 0 2.1-1.5 3.9-4.2 3.9-1.5 0-4.3-1-4.3-4.3h2.3c0.1 1.3 0.8 2.2 2.1 2.2 1 0 1.8-0.6 1.8-1.7 0-1.1-1-1.4-2.2-1.9-1.3-0.5-3.4-1-3.4-3.7 0-1.8 1.5-3.5 3.8-3.5 1.4 0 3.7 0.9 3.8 3.6z"/>
			<text id="TM" style="transform: matrix(1,0,0,1,564.452,25.751)" >
				<tspan x="0" y="0" class="t1">TM
</tspan>
			</text>
		</g>
	</g>
</svg>