<svg version="1.2" xmlns="http://www.w3.org/2000/svg" viewBox="0 0 1200 184" width="1200" height="184">
	<title>Ad on Workforce logo black</title>
	<style>
		.s0 { fill: #ffffff } 
	</style>
	<g id="Layer 7">
		<path id="&lt;Compound Path&gt;" class="s0" d="m93.7 166.2l-4.9-14.6h-35l-5.3 14.6h-27.7l40.4-100.7h20.3l40 100.7zm-22.1-69.5h-0.4l-10.4 34.5h21.2z"/>
	</g>
	<g id="Layer 6">
		<path id="&lt;Compound Path&gt;" class="s0" d="m165.8 166.2h-35.3v-100.7h33.4c18.2 0 33.1 3 44.5 18.8 6.5 9.1 9.3 20.1 9.3 31.3 0 33-18.9 50.6-51.9 50.6zm1.6-78.2h-11.2v55.5h11c17.6 0 24.6-11.3 24.6-27.6 0-16.3-7.2-27.9-24.4-27.9z"/>
	</g>
	<g id="Layer 5">
	</g>
	<g id="Layer 4">
		<g id="&lt;Group&gt;">
			<path id="&lt;Compound Path&gt;" class="s0" d="m277.6 91.4c-12.3 0-23.1 5.1-30.5 14.8-1.8 2.4-3.6 5.3-4.7 8.1-1.9 4.7-2.7 9.6-2.8 14.7h0.1c0 0.2 0 0.5 0 0.7 0 20.7 17.5 36.5 37.9 36.5 20.3 0 38-16 38.1-37.2 0-0.1 0-0.1 0-0.2-0.1-21.2-17.1-37.4-38.1-37.4zm19.7 37.6c-0.1 10.9-7.9 21-19.4 21-11.8 0-19.7-9.7-19.8-21h-0.1c0-0.1 0-0.3 0-0.4 0-11.3 7.9-21 19.7-21q0.6 0 1.1 0 1.1 0.1 2.1 0.3 0.5 0 1 0.2 1.5 0.3 2.9 0.9 0.5 0.1 0.9 0.4 0.9 0.4 1.8 0.9 0.8 0.5 1.6 1.1 0.8 0.6 1.5 1.2 0.7 0.7 1.3 1.4c1.3 1.5 2.4 3.2 3.2 5q0.9 1.8 1.4 3.8 0.3 1 0.4 2 0.2 1 0.3 2 0.1 1 0.1 2.1z"/>
			<path id="&lt;Path&gt;" class="s0" d="m369.3 129h-0.1l0.2 8.8-0.2 0.2-5.6-9-22.2-36.2h-15.9v36.2 35.8h17.6l-0.4-35.8-0.1-7.9 0.2-0.1 5 8 22.4 35.8h16v-35.8h0.1v-36.2h-17.6z"/>
			<path id="&lt;Compound Path&gt;" class="s0" d="m641.9 129h0.1c1.7-3.4 2.6-7.3 2.6-11.4-0.1-7.5-3-14.9-8.9-19.6-6.2-5-14.6-5.2-22.2-5.2h-22.8v36.2h0.1v35.8h17.6v-23.3h0.2l16.6 23.3h21l-19.6-24.5c7.2-1.2 12.4-5.5 15.3-11.3zm-27.1 0h-6.4-0.1v-20h6.7c6.3 0 11.9 2.6 11.9 9.7 0 7.1-5.2 10.3-12.1 10.3z"/>
			<path id="&lt;Compound Path&gt;" class="s0" d="m906.3 129c1.7-3.4 2.6-7.3 2.6-11.4 0-7.5-2.9-14.9-8.8-19.6-6.2-5-14.6-5.2-22.2-5.2h-22.8v36.2 35.8h17.6v-23.3h0.2l16.6 23.3h21l-19.5-24.5c7.2-1.2 12.4-5.5 15.3-11.3zm-27.1 0h-6.5v-20h6.7c6.3 0 11.9 2.6 11.9 9.7 0 7.1-5.2 10.3-12.1 10.3z"/>
			<path id="&lt;Path&gt;" class="s0" d="m1018.2 148.6v-12.4h21.7v-7.3-0.9-7.9h-21.7v-11.2h22.4v-16.2h-40v36.2 35.9h40v-16.2z"/>
			<path id="&lt;Path&gt;" class="s0" d="m483.1 92.8l-7.6 36.2h0.1l-2.3 10.8h-0.2l-2.4-10.8-8-36.2h-14.1l-8.2 36.2h-0.1l-2.3 10.6h-0.2l-2.2-10.6h-0.1l-7.4-36.2h-18.7l9.3 36.2h0.1l9.2 35.8h16.6l8.3-35.8h0.1l2.5-10.8h0.2l2.5 10.8 8.3 35.8h16.2l9.5-35.8h-0.1l9.6-36.2z"/>
			<path id="&lt;Compound Path&gt;" class="s0" d="m542.8 91.4c-12.3 0-23.1 5.1-30.5 14.8-1.8 2.4-3.6 5.3-4.7 8.1-1.9 4.7-2.7 9.6-2.8 14.7h0.1c0 0.2 0 0.5 0 0.7 0 20.7 17.5 36.5 37.9 36.5 20.3 0 38-16 38.1-37.2 0-0.1 0-0.1 0-0.2-0.1-21.2-17.1-37.4-38.1-37.4zm19.7 37.6c-0.1 10.9-7.9 21-19.4 21-11.8 0-19.7-9.7-19.8-21h-0.1c0-0.1 0-0.3 0-0.4 0-11.3 7.9-21 19.7-21 11.8 0 19.6 10.1 19.6 21.3z"/>
			<path id="&lt;Path&gt;" class="s0" d="m690.6 128.7l23.8-35.9h-19.3l-20.3 32.4h-0.2v-32.4h-18.4v36.2 35.8h18.4v-31.1h0.2l19.7 31.1h21.5l-25.2-35.8z"/>
			<path id="&lt;Path&gt;" class="s0" d="m723.1 128v36.8h17.6v-27.4h20.9v-8.5-7.8h-20.9v-12.2h21.7v-16.2h-39.3z"/>
			<path id="&lt;Compound Path&gt;" class="s0" d="m807.2 91.4c-12.3 0-23.1 5.1-30.5 14.8-1.8 2.4-3.6 5.3-4.7 8.1-1.9 4.7-2.7 9.6-2.8 14.7h0.1c0 0.2 0 0.5 0 0.7 0 20.7 17.5 36.5 37.9 36.5 20.3 0 38-16 38.1-37.2 0-0.1 0-0.1 0-0.2-0.1-21.2-17.1-37.4-38.1-37.4zm19.7 37.6c-0.1 10.9-7.9 21-19.4 21-11.8 0-19.7-9.7-19.8-21h-0.1c0-0.1 0-0.3 0-0.4 0-11.3 7.9-21 19.7-21 11.8 0 19.6 10.1 19.6 21.3z"/>
			<path id="&lt;Path&gt;" class="s0" d="m954.4 107.6c8.1 0 14.6 5.2 17.4 12.6h19.3c-0.7-4.2-2.5-8.3-4.9-11.8-7.2-10.9-18.7-16.9-31.7-16.9-20.9 0-37.8 16.2-37.8 37.3q0 0.1 0 0.3c0.2 20.9 17.2 37.1 38 37.1 17.4 0 32.2-11.3 36.4-28.3h-19.3c-3.2 7.1-9.2 12.2-17.3 12.2-11.6 0-19.2-10.1-19.4-21 0-0.1 0-0.3 0-0.4 0-11.2 7.6-21.1 19.3-21.1z"/>
		</g>
	</g>
	<g id="Layer 3">
		<path id="&lt;Compound Path&gt;" class="s0" d="m1130.9 15.8c-17.4 0-31.5 14.1-31.5 31.5 0 17.4 14.1 31.5 31.5 31.5 17.4 0 31.5-14.1 31.5-31.5 0-17.4-14.1-31.5-31.5-31.5zm0 47.9c-9 0-16.3-7.3-16.3-16.3 0-9 7.3-16.3 16.3-16.3 9 0 16.3 7.3 16.3 16.3 0 9-7.3 16.3-16.3 16.3z"/>
	</g>
	<g id="Layer 2">
		<path id="&lt;Path&gt;" class="s0" d="m1081.4 122.8v43.4h15.4v-41c0-10.9 8.8-19.8 19.8-19.8h28c10.9 0 19.8 8.8 19.8 19.8v41h15.4v-43.4c0-18.1-14.6-32.8-32.8-32.8h-32.8c-18.2 0-32.8 14.7-32.8 32.8z"/>
	</g>
</svg>